<?xml version="1.0" encoding="UTF-8" standalone="no"?>
<svg
   xmlns:dc="http://purl.org/dc/elements/1.1/"
   xmlns:cc="http://creativecommons.org/ns#"
   xmlns:rdf="http://www.w3.org/1999/02/22-rdf-syntax-ns#"
   xmlns:svg="http://www.w3.org/2000/svg"
   xmlns="http://www.w3.org/2000/svg"
   xmlns:sodipodi="http://sodipodi.sourceforge.net/DTD/sodipodi-0.dtd"
   xmlns:inkscape="http://www.inkscape.org/namespaces/inkscape"
   version="1.1"
   id="svg58"
   width="175.03999"
   height="169.28"
   viewBox="0 0 175.03999 169.28"
   sodipodi:docname="vectorscope_test_Cropped_colored_noLetters.svg"
   inkscape:version="1.0.2-2 (e86c870879, 2021-01-15)">
  <metadata
     id="metadata64">
    <rdf:RDF>
      <cc:Work
         rdf:about="">
        <dc:format>image/svg+xml</dc:format>
        <dc:type
           rdf:resource="http://purl.org/dc/dcmitype/StillImage" />
        <dc:title></dc:title>
      </cc:Work>
    </rdf:RDF>
  </metadata>
  <defs
     id="defs62" />
  <sodipodi:namedview
     pagecolor="#ffffff"
     bordercolor="#666666"
     borderopacity="1"
     objecttolerance="10"
     gridtolerance="10"
     guidetolerance="10"
     inkscape:pageopacity="0"
     inkscape:pageshadow="2"
     inkscape:window-width="1920"
     inkscape:window-height="1001"
     id="namedview60"
     showgrid="false"
     inkscape:zoom="4.9031191"
     inkscape:cx="87.519997"
     inkscape:cy="74.892803"
     inkscape:window-x="-9"
     inkscape:window-y="-9"
     inkscape:window-maximized="1"
     inkscape:current-layer="g66" />
  <g
     inkscape:groupmode="layer"
     inkscape:label="Image"
     id="g66">
    <path
       style="fill:#5dfd36;stroke-width:0.32"
       d="m 89.447161,164.72 c -0.005,-1.628 -0.067,-8 -0.13824,-14.16 -0.36884,-31.87219 -0.37182,-31.34187 0.17711,-31.44858 0.45344,-0.0881 0.53549,0.93741 0.7371,9.21309 0.22039,9.04638 0.35572,10.68721 0.81953,9.93675 0.11979,-0.19382 1.39575,-0.44323 2.83547,-0.55426 2.28833,-0.17646 2.61767,-0.13627 2.61767,0.31947 0,0.5421 -0.65815,0.78046 -2.56,0.92715 l -1.12,0.0864 0.0921,1.70579 c 0.0782,1.44931 0.0118,1.68988 -0.44149,1.6 -0.33064,-0.0656 -0.73077,-0.75573 -1.05208,-1.81469 -0.28518,-0.93989 -0.62651,-1.59989 -0.75851,-1.46667 -0.28872,0.29141 -0.26597,13.83449 0.0301,17.89557 0.11547,1.584 0.16188,4.644 0.10314,6.8 -0.0984,3.6124 -0.15491,3.92 -0.72,3.92 -0.55945,0 -0.61395,-0.25946 -0.62184,-2.96 z M 61.935804,154.35943 c -1.728983,-0.59768 -2.512388,-1.25504 -2.048509,-1.71892 0.218752,-0.21875 0.823664,-0.15383 1.861414,0.19976 1.705011,0.58096 1.947843,0.45157 2.314342,-1.23309 0.237946,-1.09376 0.791268,-1.57892 1.383383,-1.21297 0.374419,0.2314 0.317289,0.61411 -0.343303,2.29973 -0.435856,1.11218 -1.002809,2.05389 -1.259897,2.0927 -0.257088,0.0388 -1.115431,-0.15343 -1.90743,-0.42721 z m 40.054456,-0.34817 c -0.16507,-0.31419 -0.40366,-1.21926 -0.5302,-2.01126 -0.12654,-0.792 -0.49892,-2.58248 -0.8275,-3.97885 -0.62303,-2.64765 -0.48768,-3.38264 0.62244,-3.37983 0.28645,6.4e-4 2.22403,-0.37686 4.30574,-0.83908 2.12367,-0.47153 3.89724,-0.7179 4.04083,-0.56132 0.30756,0.33541 1.93743,7.65224 1.93556,8.68912 -0.002,0.83009 0.19503,0.74735 -3.84132,1.61735 -5.02659,1.08344 -5.36557,1.111 -5.70555,0.46387 z m 3.24526,-1.51668 c 0.32651,-0.32651 0.39869,-0.7802 0.24184,-1.52 -0.20549,-0.96919 -0.31221,-1.04718 -1.31802,-0.96313 -1.45026,0.12118 -1.70535,0.43886 -1.44912,1.80465 0.18718,0.99776 0.33247,1.1439 1.13724,1.1439 0.50745,0 1.13208,-0.20944 1.38806,-0.46542 z m 4.67862,-0.94846 c 0.53696,-0.64701 -0.08,-2.25134 -0.91242,-2.37264 -1.47075,-0.21432 -2.26591,0.21021 -2.26591,1.20976 0,0.51208 0.20323,1.13427 0.45161,1.38265 0.51513,0.51513 2.23162,0.37678 2.72672,-0.21977 z m -5.16285,-3.21493 c 0.0969,-0.0969 0.0431,-0.71506 -0.11965,-1.37368 -0.23741,-0.96104 -0.46166,-1.21674 -1.1356,-1.29488 -1.06478,-0.12347 -1.87313,0.65984 -1.66329,1.61174 0.34731,1.57542 0.39108,1.61456 1.58838,1.42026 0.63469,-0.10299 1.23326,-0.26654 1.33016,-0.36344 z m 4.14929,-0.94711 c 0.48667,-0.45265 0.18176,-2.40329 -0.41124,-2.63084 -0.21751,-0.0835 -0.88104,-0.0227 -1.4745,0.13506 -0.95616,0.25416 -1.07354,0.40311 -1.03088,1.30809 0.0665,1.41003 0.62857,2.00324 1.66847,1.76079 0.46386,-0.10815 1.02553,-0.36604 1.24815,-0.5731 z m 24.49491,2.02113 c -1.37482,-1.95514 -3.24885,-4.70826 -4.16451,-6.11805 -0.91566,-1.40978 -1.86727,-2.79813 -2.11468,-3.0852 -0.24742,-0.28708 -1.57995,-2.17796 -2.96117,-4.20196 -1.38122,-2.024 -3.41019,-4.976 -4.5088,-6.56 -1.09863,-1.584 -3.37416,-4.896 -5.05676,-7.36 -1.68259,-2.464 -4.21138,-6.13193 -5.61952,-8.15095 -1.40815,-2.01903 -2.51091,-3.81903 -2.45058,-4 0.0603,-0.18098 0.34417,-0.32905 0.63077,-0.32905 0.5183,0 1.04011,0.71746 9.19308,12.64 3.63094,5.30972 7.04867,10.27093 9.92002,14.4 0.55075,0.792 1.85071,2.664 2.8888,4.16 1.0381,1.496 2.10609,3.008 2.37332,3.36 0.26723,0.352 1.57593,2.27657 2.90822,4.27681 2.18551,3.28124 2.67202,4.52319 1.77186,4.52319 -0.1707,0 -1.43522,-1.59966 -2.81005,-3.55479 z m -78.019686,-6.39739 c -1.936,-1.05266 -3.711728,-2.10493 -3.946064,-2.33837 -0.354592,-0.35324 -0.259568,-0.74023 0.566458,-2.30694 2.086147,-3.95679 3.483772,-6.3439 3.770166,-6.43936 0.261001,-0.087 1.959555,0.79452 7.049439,3.65857 0.748,0.42089 1.36,0.93172 1.36,1.13517 0,0.20346 -0.72,1.63625 -1.6,3.18399 -0.879999,1.54774 -1.599999,2.90098 -1.599999,3.0072 0,0.43627 -1.351392,2.05052 -1.701789,2.0328 -0.208016,-0.0105 -1.962211,-0.8804 -3.898211,-1.93306 z m 4.41399,-0.90225 c 0.543363,-0.91984 0.538771,-0.94481 -0.29416,-1.6 -1.158096,-0.91096 -1.614048,-0.83835 -2.231321,0.35533 -0.509581,0.98542 -0.503072,1.04102 0.187232,1.6 1.017126,0.82362 1.703436,0.71932 2.338249,-0.35533 z m -3.824505,-1.94623 c 0.312112,-0.52836 0.478025,-1.10538 0.368704,-1.28227 -0.297815,-0.48187 -2.057578,-1.32758 -2.36592,-1.13701 -0.504624,0.31187 -1.140797,2.21043 -0.780877,2.3304 0.185818,0.0619 0.610269,0.31885 0.943229,0.5709 0.886099,0.6708 1.203068,0.58753 1.834864,-0.48202 z m 5.994022,-1.97609 c 0.377446,-0.91123 0.350262,-1.04582 -0.321024,-1.58939 -1.032384,-0.83598 -1.540944,-0.74341 -2.241111,0.40792 -0.717091,1.17916 -0.62688,1.55675 0.541277,2.26554 1.00432,0.60939 1.409415,0.39208 2.020858,-1.08407 z m -3.875389,-1.92064 c 0.714237,-1.17447 0.649907,-1.36172 -0.709309,-2.06459 -0.960422,-0.49666 -1.023862,-0.48872 -1.579708,0.19772 -0.732637,0.90477 -0.740365,1.89129 -0.0191,2.4388 0.912499,0.69269 1.650227,0.50989 2.308117,-0.57193 z m -17.220248,7.26227 c -2.68345,-1.66315 -2.67418,-1.61865 -0.706925,-3.39388 2.52094,-2.27486 4.161724,-2.07887 1.737424,0.20754 -1.293981,1.22038 -1.193338,1.65462 0.598224,2.58107 0.54735,0.28304 0.882534,0.68706 0.823308,0.99238 -0.158844,0.81884 -0.62502,0.74524 -2.452031,-0.38711 z M 112.53821,136.16 c -0.74263,-1.25868 -1.01373,-1.337 -2.11958,-0.61242 -0.81403,0.53337 -1.44282,0.3882 -1.44282,-0.33311 0,-0.36062 2.76942,-2.41447 3.25569,-2.41447 0.36568,0 1.92104,3.55062 1.75028,3.9956 -0.29371,0.76541 -0.73039,0.57314 -1.44357,-0.6356 z m -42.282407,-0.91977 c 0,-0.24187 0.216,-1.05197 0.48,-1.80023 0.649795,-1.84172 0.63791,-1.88668 -0.64,-2.42062 -1.063184,-0.44423 -1.45495,-1.1746 -0.835427,-1.55748 0.43111,-0.26644 3.555427,1.12551 3.555427,1.58402 0,0.60747 -1.030016,3.77933 -1.374954,4.23408 -0.406419,0.5358 -1.185046,0.50967 -1.185046,-0.0398 z m -55.679997,-5.89236 c 0,-0.34911 0.791163,-1.09229 2.029659,-1.90655 1.116313,-0.73394 2.220849,-1.5648 2.454526,-1.84636 0.233677,-0.28156 0.902221,-0.71139 1.485654,-0.95516 0.95167,-0.39763 20.899664,-13.16129 34.190159,-21.87646 2.816,-1.84658 5.393427,-3.367743 5.727612,-3.380373 1.466477,-0.0554 0.673709,0.894123 -2.423743,2.903073 -1.817127,1.17856 -4.887869,3.17346 -6.823869,4.43312 -1.936,1.25966 -9.279999,6.00507 -16.319999,10.54537 -7.04,4.5403 -13.129827,8.59717 -13.532949,9.01527 -0.403123,0.41811 -0.91955,0.7602 -1.147616,0.7602 -0.228065,0 -1.410238,0.64492 -2.627049,1.43315 -2.422624,1.56935 -3.012385,1.7406 -3.012385,0.87472 z m 37.759998,-3.9999 c 0,-0.45658 2.897715,-3.42797 3.342976,-3.42797 0.575853,0 3.377024,2.00276 3.377024,2.41447 0,0.8148 -0.623373,0.80561 -1.882672,-0.0277 -1.40184,-0.92769 -1.841683,-0.84229 -3.213107,0.6239 -0.830077,0.88742 -1.624221,1.09148 -1.624221,0.41734 z m 87.120006,-20.56795 c -0.924,-0.42215 -1.68,-0.91887 -1.68,-1.10382 0,-0.62192 0.98757,-0.72245 2.24498,-0.22853 1.37984,0.54202 1.61702,0.41779 2.21744,-1.16144 0.43952,-1.15601 1.5135,-1.06032 1.34423,0.11978 -0.19337,1.34815 -1.29769,3.19598 -1.89315,3.16777 -0.30443,-0.0144 -1.3095,-0.37161 -2.2335,-0.79376 z m -14.42325,-6.137623 c -0.76079,-0.259176 -1.45483,-0.657784 -1.54233,-0.88579 -0.27128,-0.706941 1.13015,-3.09136 1.74241,-2.964573 0.552,0.114314 0.59541,0.482426 0.20783,1.762263 -0.17395,0.574377 -0.0526,0.776547 0.61951,1.03208 0.78675,0.29912 1.12612,1.09172 0.59583,1.39156 -0.132,0.0746 -0.86246,-0.0764 -1.62325,-0.33554 z m 9.90111,-2.324292 c -3.59864,-0.569828 -4.32582,-0.913997 -4.05268,-1.918106 0.0718,-0.264 0.30498,-1.812 0.51814,-3.44 l 0.38757,-2.96 1.15456,0.0184 c 1.54366,0.02461 8.27848,1.078854 8.53579,1.336166 0.112,0.112 0.0525,1.185037 -0.13225,2.384532 -0.18474,1.199491 -0.42416,2.864896 -0.53205,3.700896 -0.18888,1.46367 -0.23397,1.518793 -1.21654,1.487408 -0.56122,-0.01792 -2.65936,-0.292112 -4.66254,-0.609303 z m 4.37814,-1.022106 c 0.50607,-0.506067 0.48467,-0.749613 -0.11886,-1.353142 -1.04474,-1.044746 -3.30305,-0.178512 -2.39308,0.917932 0.21033,0.253434 0.69596,0.521821 1.07918,0.59642 0.38322,0.0746 0.77596,0.155244 0.87276,0.179212 0.0968,0.02397 0.3488,-0.129222 0.56,-0.340422 z m -4.12966,-0.69544 c 0.50333,-0.60647 0.11221,-1.448653 -0.77632,-1.671661 -1.25714,-0.315523 -1.91002,-0.03101 -1.91002,0.832339 0,0.764298 0.19356,0.877549 2.12082,1.240903 0.11045,0.02083 0.36493,-0.159888 0.56552,-0.401581 z m 4.83366,-3.585242 c 0,-0.60255 -0.22036,-0.787657 -1.1439,-0.960915 -1.32545,-0.248656 -1.83578,0.111117 -1.68319,1.186631 0.0778,0.54824 0.36986,0.805216 1.06709,0.93886 1.16654,0.223597 1.76,-0.169091 1.76,-1.164576 z m -4.49276,0.360055 c 0.59845,-0.721088 0.26464,-1.544778 -0.73431,-1.811927 -1.07069,-0.286332 -1.6915,-0.10144 -1.95371,0.581856 -0.2415,0.629351 0.30447,1.2968 1.20402,1.471908 0.38322,0.0746 0.78713,0.155244 0.89758,0.179212 0.11045,0.02397 0.37434,-0.165504 0.58642,-0.421049 z m 10.19018,-4.075264 -0.0974,-1.700109 -1.85732,-0.09649 c -1.70567,-0.08861 -1.84938,-0.153927 -1.76,-0.8 0.0968,-0.699722 0.066,-0.703984 -5.71272,-0.790618 -4.85694,-0.07281 -5.88994,-0.0072 -6.29714,0.4 -0.26793,0.267911 -0.90061,0.487108 -1.40598,0.487108 -1.05012,0 -1.68686,0.507318 -1.68686,1.344 0,1.120326 -0.88987,0.596784 -1.06061,-0.624 -0.0923,-0.66 -0.26718,-1.590531 -0.3886,-2.067843 l -0.22075,-0.867847 18.83498,-0.09215 c 23.89584,-0.116919 30.99498,0.04521 30.99498,0.707843 0,0.401501 -0.96815,0.515706 -5.92,0.698333 -3.256,0.120083 -6.208,0.214221 -6.56,0.209197 -0.352,-0.005 -4.00622,-0.03126 -8.12049,-0.05833 l -7.48048,-0.0492 -0.0395,2.394749 c -0.0326,1.977232 -0.13412,2.41312 -0.5821,2.500109 -0.4461,0.08663 -0.5599,-0.196935 -0.64,-1.594749 z M 88.175801,85.919999 c 0,-1.635555 0.10256,-2.08 0.48,-2.08 0.37744,0 0.48,0.444445 0.48,2.08 0,1.635555 -0.10256,2.08 -0.48,2.08 -0.37744,0 -0.48,-0.444445 -0.48,-2.08 z M 3.7758069,83.937074 C 1.127067,83.828716 0.81580699,83.752255 0.81580699,83.209948 c 0,-0.546301 0.30751401,-0.61608 3.11999991,-0.707991 1.716,-0.05608 13.1980781,-0.02995 25.5157311,0.05804 21.001764,0.150042 22.402436,0.194854 22.503463,0.72 0.101728,0.528794 -1.076886,0.56 -21.151069,0.56 -11.69234,0 -21.8908981,0.04909 -22.6634621,0.109085 -0.772565,0.05999 -2.736663,0.05459 -4.364663,-0.012 z M 84.015802,82.399999 c 0,-0.373334 0.426669,-0.48 1.919999,-0.48 1.49334,0 1.92,0.106666 1.92,0.48 0,0.373334 -0.42666,0.48 -1.92,0.48 -1.49333,0 -1.919999,-0.106666 -1.919999,-0.48 z m 5.759999,0 c 0,-0.373334 0.42667,-0.48 1.92,-0.48 1.49334,0 1.92,0.106666 1.92,0.48 0,0.373334 -0.42666,0.48 -1.92,0.48 -1.49333,0 -1.92,-0.106666 -1.92,-0.48 z M 47.116832,81.048965 c -1.290919,-0.194057 -0.882794,-0.869776 0.599651,-0.992809 1.448387,-0.120211 2.059321,-0.528231 2.059321,-1.375338 0,-0.330451 0.216,-0.600819 0.48,-0.600819 0.362666,0 0.48,0.39111 0.48,1.6 v 1.6 l -1.36,-0.04795 c -0.748,-0.02637 -1.764537,-0.108758 -2.258972,-0.183088 z M 28.975805,78.879999 c 0,-1.635555 0.102565,-2.08 0.48,-2.08 0.342456,0 0.48,0.348445 0.48,1.216 0,1.532602 0.451397,1.984 1.984,1.984 0.867556,0 1.216,0.137542 1.216,0.48 0,0.377437 -0.444444,0.48 -2.08,0.48 h -2.08 z m 59.199996,0 c 0,-1.35111 0.11152,-1.76 0.48,-1.76 0.36849,0 0.48,0.40889 0.48,1.76 0,1.35111 -0.11151,1.76 -0.48,1.76 -0.36848,0 -0.48,-0.40889 -0.48,-1.76 z m -43.546662,-2.84592 c -0.07333,-0.06926 -1.933334,-0.374861 -4.133334,-0.67912 -2.2,-0.304262 -4.116659,-0.659456 -4.259245,-0.789325 -0.290973,-0.265024 0.363555,-6.75776 0.743165,-7.371981 0.190294,-0.307897 1.249869,-0.242633 4.82456,0.297162 2.519395,0.380442 4.644921,0.755917 4.723395,0.83439 0.249011,0.249015 -0.649456,7.017188 -0.986964,7.434794 -0.326128,0.403526 -0.666233,0.505786 -0.911577,0.27408 z m -0.173206,-2.185274 c 0.435903,-0.695443 0.03327,-1.11728 -1.203872,-1.261283 -1.271882,-0.148048 -1.919431,0.839767 -0.99858,1.523296 0.786618,0.583891 1.743597,0.470045 2.202452,-0.262013 z m -4.280128,-0.408806 c 0.50543,-0.609008 0.0054,-1.288954 -1.163735,-1.582384 -0.780204,-0.195818 -1.716265,0.239802 -1.716265,0.79871 0,1.065178 2.158841,1.652618 2.88,0.783674 z m 4.909171,-2.773178 c 0.489971,-0.782825 -0.283885,-1.546822 -1.566791,-1.546822 -1.198131,0 -1.77118,0.954144 -1.076073,1.791696 0.512717,0.617789 2.200822,0.461379 2.642864,-0.244874 z m -4.452029,-0.44968 c 0.276573,-0.276569 0.502858,-0.618937 0.502858,-0.760816 0,-1.106473 -2.944704,-1.290953 -3.152176,-0.197478 -0.231066,1.21783 1.693603,1.91401 2.649318,0.958294 z m 11.064966,0.262858 c 0.0013,-0.308 0.288211,-0.992 0.637891,-1.52 0.34968,-0.528 0.636733,-1.048435 0.637891,-1.156525 0.0013,-0.108089 -0.634547,-0.439667 -1.412684,-0.736841 -1.763095,-0.673332 -2.2905,-1.23449 -1.655517,-1.761479 0.36407,-0.30215 0.920717,-0.146525 2.723945,0.761568 1.246499,0.627728 2.266365,1.249434 2.266365,1.381571 0,0.132138 -0.507827,0.994327 -1.128502,1.915978 -1.124016,1.669066 -2.073399,2.180934 -2.069389,1.115728 z m 63.734437,-5.079203 c 0.11515,-0.577824 0.17932,-0.619725 23.78346,-15.528547 2.992,-1.889805 6.85321,-4.344164 8.58048,-5.454128 4.96061,-3.187776 8.65128,-5.320352 9.25952,-5.350429 1.22691,-0.06067 0.43411,0.951433 -1.93637,2.472035 -1.373,0.880746 -2.68663,1.830611 -2.91918,2.110813 -0.23255,0.280201 -0.5961,0.509459 -0.80789,0.509459 -0.37339,0 -3.68283,2.025466 -15.69656,9.606691 -3.168,1.999159 -6.92899,4.363491 -8.35775,5.254071 -1.42877,0.890582 -4.48432,2.807238 -6.79013,4.259238 -4.19502,2.641677 -5.31162,3.104592 -5.11558,2.120797 z M 32.175805,63.22109 c 0,-0.879433 1.686816,-4.341091 2.115354,-4.341091 0.606643,0 3.08624,0.98152 3.553075,1.406445 0.244812,0.222835 0.283648,0.52303 0.105036,0.811929 -0.244256,0.395076 -0.463907,0.387469 -1.590499,-0.05507 -1.532464,-0.60197 -1.968019,-0.346613 -2.581999,1.513771 -0.252797,0.765975 -0.566151,1.122925 -0.985783,1.122925 -0.338351,0 -0.615184,-0.206509 -0.615184,-0.458909 z M 66.223835,50.639999 C 50.716729,27.263909 45.181676,18.973247 44.792297,18.538825 43.775597,17.404518 41.116029,12.673101 41.26983,12.2723 c 0.303555,-0.791058 0.790432,-0.449523 2.092499,1.467854 0.709703,1.045085 1.443949,1.995073 1.631661,2.111084 0.187709,0.116012 0.469562,0.548307 0.626336,0.960657 0.156778,0.412349 5.983961,9.33353 12.949302,19.824846 6.96534,10.491316 12.579689,19.211952 12.476329,19.379188 -0.500544,0.8099 -1.337796,-0.123504 -4.822122,-5.37593 z M 87.788561,26.822413 c -0.10436,-24.2370735 -0.07,-25.86241304 0.54724,-25.86241304 0.29523,0 0.47686,0.66092604 0.5936,2.16000004 0.0925,1.188 0.15641,2.304 0.142,2.48 -0.0144,0.176 -0.11381,9.812043 -0.2209,21.413431 -0.14838,16.075438 -0.28682,21.124117 -0.58194,21.222414 -0.29983,0.09987 -0.40818,-4.734105 -0.48,-21.413432 z M 118.74695,44.12685 c -0.62213,-0.546233 -1.13114,-1.194233 -1.13114,-1.44 0,-0.594483 1.09799,-0.571734 1.6,0.03315 0.64669,0.77921 1.392,0.560003 2.72,-0.8 1.24957,-1.279677 2.084,-1.633472 2.07548,-0.88 -0.007,0.58313 -3.16994,4.08 -3.69085,4.08 -0.2433,0 -0.95137,-0.446918 -1.57349,-0.99315 z m -13.52916,-7.147961 c -1.88064,-0.882717 -1.85811,-0.563597 -0.2873,-4.069469 0.87142,-1.944916 1.35407,-2.448675 1.86068,-1.942065 0.21279,0.212788 0.0587,0.965614 -0.46123,2.252714 -0.42945,1.063216 -0.69382,2.071469 -0.58748,2.24056 0.10635,0.169092 0.74604,0.537575 1.42154,0.818852 1.27049,0.52903 1.44968,1.254451 0.34675,1.403769 -0.33822,0.04579 -1.37005,-0.271174 -2.29296,-0.704361 z m 11.43802,-3.251975 c -1.32,-0.978995 -2.94,-2.129855 -3.6,-2.557467 -0.66,-0.427612 -1.2,-1.000808 -1.2,-1.27377 0,-0.531532 4.05381,-6.370782 5.04649,-7.269147 0.56274,-0.509272 0.66915,-0.490411 1.9014,0.337002 2.52807,1.697513 6.49211,4.611637 6.49211,4.772602 0,0.428215 -5.55532,7.783033 -5.87444,7.777318 -0.20106,-0.0036 -1.44556,-0.807543 -2.76556,-1.786538 z m 3.53928,-1.133459 c 0.3917,-0.945649 0.36288,-1.053028 -0.47638,-1.774931 -1.0438,-0.897837 -1.35246,-0.849758 -2.24342,0.349449 l -0.65948,0.88762 0.96,0.770614 c 1.28754,1.033536 1.91997,0.972694 2.41928,-0.232752 z m -3.73608,-2.342197 c 0.71916,-1.097569 0.6482,-1.611557 -0.30905,-2.238772 -1.01038,-0.662027 -1.41034,-0.526109 -2.13713,0.726258 -0.55788,0.961317 -0.55532,0.976139 0.28315,1.635682 1.09837,0.863975 1.53242,0.839259 2.16303,-0.123168 z m 6.28581,-1.211259 0.6396,-1.04 -0.8843,-0.723305 c -1.08023,-0.883561 -1.58184,-0.81764 -2.42991,0.319331 l -0.65342,0.876027 0.75529,0.803973 c 1.01819,1.083818 1.80545,1.011594 2.57274,-0.236026 z m -3.83095,-2.24 c 0.81098,-0.972117 0.77122,-1.356128 -0.22121,-2.136774 -1.10451,-0.86881 -1.21483,-0.848075 -2.00448,0.376774 l -0.67048,1.04 0.8169,0.72 c 0.4493,0.396 0.96579,0.72 1.14776,0.72 0.18198,0 0.60116,-0.324 0.93151,-0.72 z m -53.781753,4.342652 c -1.184064,-1.867076 -1.434253,-2.632711 -1.001664,-3.065302 0.456541,-0.456542 1.117008,0.11727 1.805869,1.56894 0.472595,0.995922 0.644841,1.1107 1.389475,0.92589 2.281161,-0.56616 2.610006,-0.57295 2.610006,-0.05389 0,0.473794 -2.731168,2.12171 -3.516409,2.12171 -0.185728,0 -0.765002,-0.673806 -1.287277,-1.497348 z M 132.1718,30.073499 c -0.11099,-0.179576 0.24218,-0.930212 0.78482,-1.668082 l 0.98661,-1.341581 -1.28768,-1.131919 c -0.92735,-0.81518 -1.20695,-1.25546 -0.99917,-1.573417 0.23178,-0.35471 0.6729,-0.204233 2.24397,0.765483 1.0755,0.663841 1.95546,1.386941 1.95546,1.606891 0,0.462874 -2.80572,3.669125 -3.21077,3.669125 -0.1493,0 -0.36226,-0.146925 -0.47324,-0.3265 z m -49.755998,-1.7535 c 0,-0.312381 0.31289,-0.48 0.896,-0.48 1.401389,0 1.654329,-0.485706 1.441249,-2.767522 -0.17965,-1.923826 -0.15311,-2.032478 0.49648,-2.032478 0.49768,0 0.6869,0.197858 0.68855,0.72 0.001,0.396 0.0941,1.692 0.20627,2.88 l 0.204,2.16 h -1.96628 c -1.534461,0 -1.966269,-0.105412 -1.966269,-0.48 z M 68.88044,23.449818 c -0.305974,-0.526181 -1.866157,-8.437903 -1.766246,-8.956689 0.08044,-0.417694 0.931484,-0.719568 3.623372,-1.285251 6.250038,-1.313404 5.839779,-1.321003 6.095661,0.112918 0.121625,0.681562 0.570608,2.810288 0.997737,4.730503 0.812979,3.654839 0.759533,4.01161 -0.602768,4.0238 -0.301187,0.0027 -1.741187,0.276603 -3.2,0.608685 -3.864476,0.8797 -4.984719,1.046403 -5.147756,0.766034 z m 3.132451,-1.80812 c 0.503677,-0.368295 0.55015,-0.611069 0.290979,-1.52 -0.235462,-0.825777 -0.50471,-1.104737 -1.138022,-1.179072 -1.078803,-0.126626 -1.960787,0.739284 -1.681741,1.651092 0.461373,1.507584 1.379747,1.888177 2.528784,1.04798 z m 4.470918,-1.035418 c 0.53697,-0.536971 0.416502,-1.571742 -0.262349,-2.253505 -0.534102,-0.536389 -2.388784,-0.156084 -2.608057,0.534785 -0.100899,0.317907 -0.09003,0.950258 0.02416,1.405226 0.171133,0.68183 0.394345,0.827213 1.270073,0.827213 0.584349,0 1.293626,-0.231174 1.576173,-0.513719 z m -5.768838,-2.998361 c 0.663184,-0.252141 0.820832,-0.525081 0.820832,-1.421114 0,-0.60997 -0.18,-1.22109 -0.4,-1.358047 -0.501082,-0.311939 -1.870877,-0.152539 -2.396905,0.27892 -0.619501,0.508126 0.114003,2.812321 0.895257,2.812321 0.142992,0 0.62936,-0.140436 1.080816,-0.31208 z m 4.962838,-0.950027 c 0.364099,-0.230364 0.397328,-0.551428 0.156794,-1.5151 -0.290362,-1.163311 -0.365187,-1.220861 -1.538218,-1.183081 -1.665497,0.05364 -1.920854,0.563559 -1.302173,2.600288 0.140336,0.461995 2.000845,0.529863 2.683597,0.09789 z m 34.406971,1.244253 c -0.18976,-0.307034 0.9477,-3.652038 1.4351,-4.220318 0.24456,-0.285143 4.45774,1.260759 5.12222,1.879447 0.35439,0.329973 0.37699,0.523448 0.0942,0.806272 -0.28283,0.282823 -0.80469,0.206584 -2.17476,-0.317715 -0.99149,-0.379408 -1.9196,-0.689832 -2.0625,-0.689832 -0.14291,0 -0.52609,0.64746 -0.85153,1.438801 -0.57487,1.397878 -1.13589,1.793983 -1.56273,1.103345 z M 57.636197,13.619867 c -0.275216,-0.450927 -0.716393,-1.174802 -0.980393,-1.608609 -0.264,-0.433808 -0.48,-0.920075 -0.48,-1.080594 0,-0.420196 3.153536,-1.7171506 3.561769,-1.4648496 0.429399,0.265383 0.09376,2.0914876 -0.446589,2.4297716 -0.21735,0.13607 -0.39518,0.705985 -0.39518,1.266476 0,1.295722 -0.612355,1.518284 -1.259607,0.457805 z M 83.149101,8.08 C 82.872708,7.3308794 82.366801,7.0201293 81.740404,7.2147136 81.001031,7.444391 79.700532,6.3061882 79.952398,5.6498426 80.11291,5.2315539 80.595758,5.12 82.245761,5.12 h 2.09004 l 0.004,1.04 c 0.003,0.572 0.0912,1.364 0.19733,1.76 0.15626,0.5830902 0.0622,0.7200004 -0.494417,0.7200004 C 83.664663,8.6400004 83.262372,8.388 83.148733,8.08 Z"
       id="path70" />
    <text
       xml:space="preserve"
       style="font-style:normal;font-weight:normal;font-size:40px;line-height:1.25;font-family:sans-serif;fill:#000000;fill-opacity:1;stroke:none"
       x="81.784676"
       y="30.796722"
       id="text74"><tspan
         id="tspan72"
         x="81.784676"
         y="30.796722"
         sodipodi:role="line"></tspan></text>
    <text
       xml:space="preserve"
       style="font-style:normal;font-weight:normal;font-size:40px;line-height:1.25;font-family:sans-serif;fill:#000000;fill-opacity:1;stroke:none"
       x="73.830551"
       y="34.263905"
       id="text78"
       inkscape:transform-center-x="-1.6316145"
       inkscape:transform-center-y="-0.20395181"><tspan
         sodipodi:role="line"
         id="tspan76"
         x="73.830551"
         y="34.263905"
         style="font-style:normal;font-variant:normal;font-weight:normal;font-stretch:normal;font-size:8px;font-family:sans-serif;-inkscape-font-specification:'sans-serif, Normal';font-variant-ligatures:normal;font-variant-caps:normal;font-variant-numeric:normal;font-variant-east-asian:normal;fill:#00ff00">R</tspan></text>
    <text
       xml:space="preserve"
       style="font-style:normal;font-weight:normal;font-size:40px;line-height:1.25;font-family:sans-serif;fill:#000000;fill-opacity:1;stroke:none"
       x="128.08173"
       y="38.54689"
       id="text82"><tspan
         sodipodi:role="line"
         id="tspan80"
         x="128.08173"
         y="38.54689"
         style="font-style:normal;font-variant:normal;font-weight:normal;font-stretch:normal;font-size:8px;font-family:sans-serif;-inkscape-font-specification:'sans-serif, Normal';font-variant-ligatures:normal;font-variant-caps:normal;font-variant-numeric:normal;font-variant-east-asian:normal;fill:#00ff00">MG</tspan></text>
    <text
       xml:space="preserve"
       style="font-style:normal;font-variant:normal;font-weight:normal;font-stretch:normal;font-size:8px;line-height:1.25;font-family:sans-serif;-inkscape-font-specification:'sans-serif, Normal';font-variant-ligatures:normal;font-variant-caps:normal;font-variant-numeric:normal;font-variant-east-asian:normal;fill:#000000;fill-opacity:1;stroke:none"
       x="96.4692"
       y="135.01608"
       id="text86"><tspan
         sodipodi:role="line"
         id="tspan84"
         x="96.4692"
         y="135.01608"
         style="fill:#00ff00">CY</tspan></text>
    <text
       xml:space="preserve"
       style="font-style:normal;font-weight:normal;font-size:40px;line-height:1.25;font-family:sans-serif;fill:#000000;fill-opacity:1;stroke:none"
       x="40.586411"
       y="133.18053"
       id="text90"><tspan
         sodipodi:role="line"
         id="tspan88"
         x="40.586411"
         y="133.18053"
         style="font-style:normal;font-variant:normal;font-weight:normal;font-stretch:normal;font-size:8px;font-family:sans-serif;-inkscape-font-specification:'sans-serif, Normal';font-variant-ligatures:normal;font-variant-caps:normal;font-variant-numeric:normal;font-variant-east-asian:normal;fill:#00ff00">G</tspan></text>
    <text
       xml:space="preserve"
       style="font-style:normal;font-variant:normal;font-weight:normal;font-stretch:normal;font-size:8px;line-height:1.25;font-family:sans-serif;-inkscape-font-specification:'sans-serif, Normal';font-variant-ligatures:normal;font-variant-caps:normal;font-variant-numeric:normal;font-variant-east-asian:normal;fill:#00ff00;fill-opacity:1;stroke:none"
       x="40.586411"
       y="62.00135"
       id="text94"><tspan
         sodipodi:role="line"
         id="tspan92"
         x="40.586411"
         y="62.00135">YL</tspan></text>
    <text
       xml:space="preserve"
       style="font-style:normal;font-variant:normal;font-weight:normal;font-stretch:normal;font-size:8px;line-height:1.25;font-family:sans-serif;-inkscape-font-specification:'sans-serif, Normal';font-variant-ligatures:normal;font-variant-caps:normal;font-variant-numeric:normal;font-variant-east-asian:normal;fill:#00ff00;fill-opacity:1;stroke:none"
       x="146.43739"
       y="98.304771"
       id="text98"><tspan
         sodipodi:role="line"
         id="tspan96"
         x="146.43739"
         y="98.304771">B</tspan></text>
  </g>
</svg>
